<svg xmlns="http://www.w3.org/2000/svg" viewBox="0 0 28.72 28.69" width="30" height="30"><defs><style>.cls-1{fill:#c5c6c6;}</style></defs><title>资源 2</title><g id="图层_2" data-name="图层 2"><g id="图层_1-2" data-name="图层 1"><path class="cls-1" d="M28.72,9.72V9.61a.49.49,0,0,0,0-.12.43.43,0,0,0,0-.11s0-.08,0-.11a.93.93,0,0,1,0-.1l-.08-.1,0-.05,0,0s0,0,0,0L17.37.18A.85.85,0,0,0,16.63,0L4.18,3.3h0l0,0a.75.75,0,0,0-.34.21h0a.94.94,0,0,0-.2.35v0h0L0,17.29a.83.83,0,0,0,.25.84l9.38,8.6c-2.84.16-4.82.52-4.82.93,0,.57,3.83,1,8.55,1s8.55-.46,8.55-1-2.7-.89-6.35-1l7.59-3.08a.85.85,0,0,0,.47-.48l5-13.17a.64.64,0,0,0,0-.07l0-.09ZM16.65,1.78l9.5,7.55-3.59,1.28a.84.84,0,0,0-.32,1.4,1.64,1.64,0,0,1,.3,1.69,1.78,1.78,0,0,1-.8,1,1.25,1.25,0,0,1-1,.1,1.48,1.48,0,0,1-.8-1.82.86.86,0,0,0-.26-.84,1,1,0,0,0-.24-.15l-.07,0a.78.78,0,0,0-.21,0h-.07a1.09,1.09,0,0,0-.26,0l-2.77,1-2.71-2.31a3.6,3.6,0,0,0,1.18-.75,2.61,2.61,0,0,0,.83-2.17A2.61,2.61,0,0,0,14,5.78a3.75,3.75,0,0,0-2.38-.48A3.63,3.63,0,0,0,9,6.9L6.18,4.53ZM4.87,5.65l4,3.43a.86.86,0,0,0,.95.08.89.89,0,0,0,.44-.88c-.07-.58.66-1.19,1.55-1.29a2.06,2.06,0,0,1,1.32.25,1,1,0,0,1,.49.66,1,1,0,0,1-.33.75,2.12,2.12,0,0,1-1.22.54,2.43,2.43,0,0,1-.66,0,.82.82,0,0,0-.9.48.85.85,0,0,0,.22,1l4.12,3.52L14,17a3.6,3.6,0,0,0-1.46-.84,2.6,2.6,0,0,0-2.3.36A3.14,3.14,0,0,0,10,20.88a3.71,3.71,0,0,0,2.3,1.49l-1.1,3.46L1.8,17.22ZM22.19,22.14,13,25.89l1.33-4.21a.85.85,0,0,0-.25-.89,1,1,0,0,0-.24-.15l-.08,0-.19,0h-.09a.82.82,0,0,0-.31.07,1.65,1.65,0,0,1-1.77-.78,2.17,2.17,0,0,1-.44-1.15,1,1,0,0,1,.32-.87,1,1,0,0,1,.82-.09,2.12,2.12,0,0,1,1.08.8,2.46,2.46,0,0,1,.33.62.85.85,0,0,0,.8.57h0a.88.88,0,0,0,.8-.6l1.45-4.59L18.19,14a3,3,0,0,0,2,2.42,3.39,3.39,0,0,0,.55.13h.16l.24,0h.11a3.78,3.78,0,0,0,.47-.06l.22-.05a2.7,2.7,0,0,0,.66-.27,3.36,3.36,0,0,0,1.58-1.9,3.42,3.42,0,0,0,0-2.4L26.43,11Z"/></g></g></svg>