<?xml version="1.0" standalone="no"?><!DOCTYPE svg PUBLIC "-//W3C//DTD SVG 1.1//EN" "http://www.w3.org/Graphics/SVG/1.1/DTD/svg11.dtd"><svg t="1557199302570" class="icon" style="" viewBox="0 0 1024 1024" version="1.1" xmlns="http://www.w3.org/2000/svg" p-id="21821" xmlns:xlink="http://www.w3.org/1999/xlink" width="35" height="35"><defs><style type="text/css"></style></defs><path d="M1019.733333 810.666667L669.866667 217.6c-10.666667-19.2-36.266667-21.333333-51.2-4.266667L245.333333 625.066667c-6.4 8.533333-17.066667 10.666667-27.733333 10.666666-57.6-8.533333-138.666667 6.4-177.066667 46.933334-53.333333 55.466667-49.066667 110.933333-10.666666 151.466666 14.933333 14.933333 27.733333 21.333333 34.133333 23.466667 4.266667 2.133333 8.533333 2.133333 10.666667 2.133333h70.4c8.533333 0 17.066667-4.266667 23.466666-10.666666l443.733334-503.466667c14.933333-14.933333 38.4-12.8 51.2 4.266667l268.8 430.933333c12.8 21.333333-2.133333 49.066667-27.733334 49.066667H582.4c-6.4 0-14.933333-2.133333-19.2-6.4l-100.266667-81.066667 153.6-174.933333c6.4-8.533333 19.2-6.4 25.6 2.133333l157.866667 226.133333c2.133333 4.266667 8.533333 6.4 12.8 6.4h42.666667c12.8 0 21.333333-14.933333 12.8-25.6L642.133333 437.333333c-6.4-8.533333-19.2-10.666667-25.6-2.133333l-362.666666 394.666667c-10.666667 10.666667-2.133333 27.733333 12.8 27.733333h83.2c4.266667 0 8.533333-2.133333 12.8-6.4l57.6-66.133333 68.266666 61.866666c6.4 4.266667 12.8 8.533333 21.333334 8.533334h482.133333c25.6 4.266667 40.533333-23.466667 27.733333-44.8zM134.4 780.8l-2.133333 2.133333c-55.466667 55.466667-72.533333 40.533333-93.866667 19.2-19.2-19.2-10.666667-61.866667 21.333333-93.866666C91.733333 676.266667 149.333333 657.066667 170.666667 676.266667c19.2 21.333333 14.933333 42.666667-36.266667 104.533333zM770.133333 288zM770.133333 288c0-34.133333 12.8-61.866667 32-64-17.066667 0-32-27.733333-32-64 0 34.133333-12.8 61.866667-32 64 17.066667 2.133333 32 29.866667 32 64z" fill="#000" p-id="21822"></path></svg>